<?xml version="1.0" encoding="utf-8"?>
<!-- Generator: Adobe Illustrator 28.0.0, SVG Export Plug-In . SVG Version: 6.00 Build 0)  -->
<svg version="1.1" id="Layer_1" xmlns="http://www.w3.org/2000/svg" xmlns:xlink="http://www.w3.org/1999/xlink" x="0px" y="0px"
	 viewBox="0 0 272 145.1" style="enable-background:new 0 0 272 145.1;" xml:space="preserve">
<style type="text/css">
	.st0{fill:#ff6b31;}
</style>
<g>
	<path class="st0" d="M176.2,98.9c-18.2,5-35.5-7-38.8-22.1c-4.7-21.6,11.2-38,29.5-38.1c7.8-0.1,14.6,2.5,20.6,7.5
		c1.1,0.9,1.3,1.6,0.2,2.8c-2.2,2.3-4.3,4.7-6.3,7.1c-0.9,1-1.6,1.1-2.8,0.4c-5.8-3.8-12.1-4.8-18.6-2.1c-6,2.5-10,9-9.7,15.3
		c0.3,7.3,4.9,13.3,11.7,15.5c4.7,1.5,9.2,0.8,13.7-0.9c0.5-0.2,0.9-1,1-1.5c0.1-1.4-0.1-2.8,0-4.1c0.1-1.3-0.5-1.6-1.7-1.6
		c-3.2,0.1-6.5,0-9.7,0.1c-1.3,0-1.8-0.4-1.8-1.8c0.1-3.7,0-7.4,0-11.1c0-1,0.3-1.4,1.4-1.4c8.1,0.1,16.2,0.1,24.4,0.1
		c1.1,0,1.4,0.6,1.3,1.5c-0.1,3.1-0.1,6.1-0.1,9.2c0,9.2-0.1,18.3,0,27.5c0.2,15.2-14.9,30.2-33.6,26c-4.1-0.9-7.9-2.5-11.3-5
		c-3.5-2.6-10.4-2.6-14.2,0.2c-4.9,3.7-10.6,5.5-16.8,5.6c-5.5,0-10.6-1.2-15-4.4c-4.9-3.5-10.1-4-15.7-2.2c-0.5,0.2-1.3,0-1.6-0.4
		c-2.7-3.4-5.3-6.8-8.3-10.6c2.3-1.1,4.2-2.2,6.2-2.9c9.3-3.5,18-2.2,25.9,3.8c4.4,3.3,11,3.4,15.8,0.6c3.2-1.9,6.3-3.9,9.8-5
		c7.6-2.4,14.8-1.3,21.4,3.4c3.6,2.6,7.4,4.2,11.9,3.8C172.2,113.2,177.6,106.3,176.2,98.9z"/>
	<path class="st0" d="M15.3,69.4c0-9.3,0-18.7,0-28c0-1.3,0.3-1.9,1.7-1.8c7.2,0.1,14.4,0,21.6,0.2C52.1,40.1,64,51,65.9,64.5
		c1.3,8.8-0.2,17-5.9,23.9C54.4,95.2,47.1,99,38.1,99.1c-7,0.1-14.1,0-21.1,0.1c-1.4,0-1.7-0.4-1.7-1.8C15.4,88,15.3,78.7,15.3,69.4
		C15.3,69.4,15.3,69.4,15.3,69.4z M29.5,85.4c4.1,0,8.1,0.4,12-0.9c6-2,10.5-7.8,10.8-14c0.3-6.5-3.5-12.6-9.5-15.3
		c-3.7-1.7-7.6-1.4-11.5-1.5c-1.5,0-2,0.4-2,1.9c0.1,9.6,0.1,19.1,0.1,28.7C29.4,84.5,29.5,84.9,29.5,85.4z"/>
	<path class="st0" d="M234,98.9c-2.9,0.2-5.8,0.7-8.7,0.7c-8-0.1-15.3-2.3-21.2-8.1c-4.5-4.5-7.3-9.8-8.1-16
		c-1.4-10.2,0.9-19.5,8.1-27.1c16.2-17.1,45.3-10.4,52.3,12.1c3.1,10,1.3,19.5-4.6,28.2c-0.7,1-1.3,1.2-2.2,0.3
		c-2.9-2.8-5.8-5.6-8.7-8.4c-0.9-0.8-0.3-1.4,0.1-2.1c2.6-3.9,3.4-8.2,2.2-12.7c-2.4-9.9-13.5-15.4-23.3-11.4
		c-12,4.8-14.5,21.2-4.5,30c2.7,2.4,5.9,4.1,9.1,5.8c3.9,2,6.3,5.5,9.5,8.3C234.1,98.5,234.1,98.7,234,98.9z"/>
	<path class="st0" d="M94.1,69.3c0-9.3,0-18.6,0-27.8c0-1.6,0.5-1.9,2-1.9c10.7,0.1,21.3,0.1,32,0.1c1.6,0,2.2,0.5,2.1,2
		c-0.1,3.5,0,6.9,0,10.4c0,1.3-0.5,1.7-1.8,1.7c-6.2-0.1-12.3,0-18.5-0.1c-1.4,0-1.8,0.4-1.8,1.8c0.1,9.4,0.1,18.8,0,28.2
		c0,1.5,0.4,2,1.9,1.9c6-0.1,12.1,0,18.1,0c1.5,0,2.2,0.4,2.1,2c-0.1,3.2-0.1,6.5,0,9.7c0,1.4-0.4,1.9-1.8,1.9
		c-10.8,0-21.6,0-32.5,0c-1.4,0-1.9-0.4-1.9-1.8C94.1,88,94.1,78.7,94.1,69.3C94.1,69.3,94.1,69.3,94.1,69.3z"/>
	<path class="st0" d="M72.6,69.4c0-9.3,0-18.7,0-28c0-1.5,0.4-2,2-2c3.4,0.1,6.8,0.1,10.2,0.1c1.2,0,1.7,0.4,1.7,1.7
		c0,18.8,0,37.6,0,56.3c0,1.3-0.4,1.7-1.7,1.7c-3.5-0.1-6.9,0-10.4,0.1c-1.5,0.1-1.9-0.5-1.9-1.9C72.7,88.1,72.6,78.8,72.6,69.4z"/>
	<path class="st0" d="M226.4,78.3c-4.8,0-8.6-3.8-8.5-8.5c0-4.8,4-8.8,8.7-8.8c4.7,0,8.8,4.1,8.8,8.8
		C235.3,74.6,231.4,78.3,226.4,78.3z"/>
	<path class="st0" d="M79.9,17.3c4.3,0,7.8,3.6,7.8,7.8c0,4.5-3.6,8.2-7.9,8.2c-4.5,0-7.8-3.5-7.8-7.9C72,20.7,75.4,17.3,79.9,17.3z
		"/>
	<path class="st0" d="M116.1,69.2c0-1.8,0-3.6,0-5.4c0-1,0.4-1.3,1.3-1.3c3.3,0,6.6,0,9.8,0c1,0,1.5,0.4,1.5,1.4
		c0,3.6,0.1,7.3,0,10.9c0,0.4-0.8,1.2-1.2,1.2c-3.5,0.1-6.9,0-10.4,0c-0.9,0-1.2-0.4-1.2-1.3C116.1,72.9,116.1,71.1,116.1,69.2
		C116.1,69.2,116.1,69.2,116.1,69.2z"/>
</g>
</svg>
