<?xml version="1.0" standalone="no"?>
<!DOCTYPE svg PUBLIC "-//W3C//DTD SVG 20010904//EN"
 "http://www.w3.org/TR/2001/REC-SVG-20010904/DTD/svg10.dtd">
<svg version="1.0" xmlns="http://www.w3.org/2000/svg"
 width="1024.000000pt" height="1024.000000pt" viewBox="0 0 1024.000000 1024.000000"
 preserveAspectRatio="xMidYMid meet">

<g transform="translate(0.000000,1024.000000) scale(0.100000,-0.100000)"
fill="" stroke="none">
<path d="M0 5120 l0 -5120 5120 0 5120 0 0 5120 0 5120 -5120 0 -5120 0 0
-5120z m3631 1473 c43 -22 61 -40 87 -83 96 -162 -28 -366 -213 -347 -71 7
-131 41 -169 95 -57 81 -46 231 22 294 78 73 179 88 273 41z m2607 -609 c146
-30 294 -104 400 -200 l43 -39 -23 -26 c-13 -15 -58 -64 -100 -110 -42 -46
-86 -96 -98 -111 -12 -16 -27 -28 -35 -28 -7 0 -39 16 -71 35 -213 128 -483
110 -641 -44 -195 -190 -195 -491 0 -683 91 -90 206 -137 333 -138 68 0 196
24 250 46 33 14 34 16 34 72 0 31 -3 74 -6 95 l-7 37 -182 0 c-171 0 -183 1
-188 19 -2 10 -4 104 -3 207 l1 189 350 3 c193 2 369 0 393 -3 l43 -6 -4 -612
c-2 -457 -6 -622 -16 -652 -68 -215 -174 -365 -337 -474 -268 -180 -632 -173
-929 19 -89 57 -151 74 -244 67 -94 -7 -116 -15 -206 -75 -92 -61 -231 -117
-327 -132 -44 -7 -125 -11 -190 -8 -135 6 -257 42 -365 110 -180 111 -275 129
-437 82 -27 -8 -55 -14 -61 -14 -11 0 -122 137 -212 261 l-42 58 29 21 c42 30
162 79 248 101 102 26 252 26 358 -1 90 -23 221 -84 279 -131 53 -42 116 -68
189 -78 116 -16 218 12 334 91 64 44 197 103 273 122 37 9 107 16 162 16 162
0 274 -36 424 -137 101 -67 168 -93 258 -100 81 -6 163 13 227 53 56 36 118
103 138 150 40 91 53 241 20 224 -27 -14 -157 -30 -247 -30 -381 1 -733 257
-851 620 -42 128 -47 329 -12 486 17 73 69 192 118 269 119 186 341 336 562
380 93 19 276 18 368 -1z m1729 -3 c178 -37 317 -113 450 -248 87 -87 147
-179 192 -290 91 -223 78 -531 -29 -744 -43 -84 -99 -169 -111 -169 -6 0 -67
55 -137 123 -69 67 -134 130 -144 140 -23 22 -23 32 1 66 31 43 60 125 71 199
21 132 -28 275 -129 382 -151 157 -403 194 -605 87 -161 -85 -251 -246 -250
-447 1 -238 132 -414 404 -543 95 -45 115 -59 209 -153 64 -64 101 -108 95
-113 -12 -12 -170 -31 -254 -31 -162 0 -367 57 -485 135 -86 57 -204 179 -253
260 -123 208 -153 502 -77 743 67 211 218 398 409 506 185 106 426 142 643 97z
m-5476 -29 c232 -63 418 -208 534 -417 80 -142 110 -288 102 -482 -4 -106 -10
-144 -36 -223 -54 -168 -147 -300 -284 -403 -138 -104 -264 -152 -435 -167
-64 -6 -250 -9 -412 -8 l-295 3 -5 855 c-3 470 -3 859 -1 863 2 5 173 7 380 5
342 -4 383 -7 452 -26z m1224 -837 l0 -860 -200 0 -200 0 -1 855 c0 470 1 858
4 863 2 4 92 6 200 5 l197 -3 0 -860z m1260 660 l0 -200 -317 -3 -318 -2 0
-460 0 -460 318 -2 317 -3 0 -195 0 -195 -520 0 -520 0 -2 850 c-2 468 -1 856
2 863 4 10 113 12 522 10 l518 -3 0 -200z m2855 -425 c65 -18 127 -66 159
-122 72 -124 18 -290 -113 -349 -61 -27 -157 -25 -223 5 -62 29 -116 98 -133
168 -43 176 135 347 310 298z m-2892 -232 l2 -198 -185 0 -185 0 0 193 c0 107
3 196 6 200 3 3 85 5 183 4 l176 -2 3 -197z"/>
<path d="M2072 5113 l3 -458 125 0 c129 1 192 12 265 48 183 90 289 288 256
476 -32 176 -146 307 -320 366 -63 22 -91 25 -202 25 l-129 0 2 -457z"/>
</g>
</svg>
