<svg width="640" height="400" overflow="hidden" xmlns="http://www.w3.org/2000/svg"><defs><linearGradient x1="200.437" y1="156.451" x2="200.437" y2="220.931" gradientUnits="userSpaceOnUse" spreadMethod="reflect" id="a"><stop offset="0" stop-color="#C00000"/><stop offset=".33" stop-color="#560613"/><stop offset="1" stop-color="#560613"/></linearGradient><linearGradient x1="367.385" y1="113.964" x2="367.385" y2="182.943" gradientUnits="userSpaceOnUse" spreadMethod="reflect" id="b"><stop offset="0" stop-color="#C00000"/><stop offset=".01" stop-color="#BF0000"/><stop offset=".019" stop-color="#BF0000"/><stop offset=".029" stop-color="#BF0001"/><stop offset=".038" stop-color="#BF0001"/><stop offset=".048" stop-color="#BF0001"/><stop offset=".057" stop-color="#BF0001"/><stop offset=".067" stop-color="#BF0002"/><stop offset=".076" stop-color="#BF0002"/><stop offset=".086" stop-color="#BE0002"/><stop offset=".095" stop-color="#BE0103"/><stop offset=".105" stop-color="#BE0103"/><stop offset=".114" stop-color="#BE0103"/><stop offset=".124" stop-color="#BD0104"/><stop offset=".133" stop-color="#BD0104"/><stop offset=".143" stop-color="#BD0104"/><stop offset=".152" stop-color="#BC0105"/><stop offset=".162" stop-color="#BC0105"/><stop offset=".171" stop-color="#BC0105"/><stop offset=".181" stop-color="#BB0105"/><stop offset=".19" stop-color="#BB0106"/><stop offset=".2" stop-color="#BA0206"/><stop offset=".21" stop-color="#BA0206"/><stop offset=".219" stop-color="#B90207"/><stop offset=".229" stop-color="#B90207"/><stop offset=".238" stop-color="#B80207"/><stop offset=".248" stop-color="#B80207"/><stop offset=".257" stop-color="#B70208"/><stop offset=".267" stop-color="#B70208"/><stop offset=".276" stop-color="#B60208"/><stop offset=".286" stop-color="#B50208"/><stop offset=".295" stop-color="#B50209"/><stop offset=".305" stop-color="#B40209"/><stop offset=".314" stop-color="#B30309"/><stop offset=".324" stop-color="#B30309"/><stop offset=".333" stop-color="#B2030A"/><stop offset=".343" stop-color="#B1030A"/><stop offset=".352" stop-color="#B1030A"/><stop offset=".362" stop-color="#B0030A"/><stop offset=".371" stop-color="#AF030B"/><stop offset=".381" stop-color="#AE030B"/><stop offset=".39" stop-color="#AD030B"/><stop offset=".4" stop-color="#AC030B"/><stop offset=".41" stop-color="#AC030B"/><stop offset=".419" stop-color="#AB030C"/><stop offset=".429" stop-color="#AA030C"/><stop offset=".438" stop-color="#A9030C"/><stop offset=".448" stop-color="#A8040C"/><stop offset=".457" stop-color="#A7040C"/><stop offset=".467" stop-color="#A6040D"/><stop offset=".476" stop-color="#A5040D"/><stop offset=".486" stop-color="#A4040D"/><stop offset=".495" stop-color="#A3040D"/><stop offset=".505" stop-color="#A2040D"/><stop offset=".514" stop-color="#A1040E"/><stop offset=".524" stop-color="#A0040E"/><stop offset=".533" stop-color="#9F040E"/><stop offset=".543" stop-color="#9E040E"/><stop offset=".552" stop-color="#9D040E"/><stop offset=".562" stop-color="#9C040E"/><stop offset=".571" stop-color="#9A040F"/><stop offset=".581" stop-color="#99040F"/><stop offset=".59" stop-color="#98040F"/><stop offset=".6" stop-color="#97040F"/><stop offset=".61" stop-color="#96040F"/><stop offset=".619" stop-color="#94050F"/><stop offset=".629" stop-color="#930510"/><stop offset=".638" stop-color="#920510"/><stop offset=".648" stop-color="#910510"/><stop offset=".657" stop-color="#8F0510"/><stop offset=".667" stop-color="#8E0510"/><stop offset=".676" stop-color="#8D0510"/><stop offset=".686" stop-color="#8B0510"/><stop offset=".695" stop-color="#8A0510"/><stop offset=".705" stop-color="#880511"/><stop offset=".714" stop-color="#870511"/><stop offset=".724" stop-color="#860511"/><stop offset=".733" stop-color="#840511"/><stop offset=".743" stop-color="#830511"/><stop offset=".752" stop-color="#810511"/><stop offset=".762" stop-color="#800511"/><stop offset=".771" stop-color="#7E0511"/><stop offset=".781" stop-color="#7D0511"/><stop offset=".79" stop-color="#7B0511"/><stop offset=".8" stop-color="#7A0512"/><stop offset=".81" stop-color="#780512"/><stop offset=".819" stop-color="#770512"/><stop offset=".829" stop-color="#750512"/><stop offset=".838" stop-color="#730512"/><stop offset=".848" stop-color="#720512"/><stop offset=".857" stop-color="#700512"/><stop offset=".867" stop-color="#6E0512"/><stop offset=".876" stop-color="#6D0512"/><stop offset=".886" stop-color="#6B0512"/><stop offset=".895" stop-color="#690512"/><stop offset=".905" stop-color="#680512"/><stop offset=".914" stop-color="#660512"/><stop offset=".924" stop-color="#640512"/><stop offset=".933" stop-color="#620512"/><stop offset=".943" stop-color="#610512"/><stop offset=".952" stop-color="#5F0512"/><stop offset=".962" stop-color="#5D0512"/><stop offset=".971" stop-color="#5B0512"/><stop offset=".981" stop-color="#590512"/><stop offset=".99" stop-color="#570512"/><stop offset="1" stop-color="#560613"/></linearGradient><linearGradient x1="532.834" y1="51.484" x2="532.834" y2="113.964" gradientUnits="userSpaceOnUse" spreadMethod="reflect" id="c"><stop offset="0" stop-color="red"/><stop offset=".006" stop-color="#FE0000"/><stop offset=".012" stop-color="#FE0000"/><stop offset=".018" stop-color="#FE0000"/><stop offset=".024" stop-color="#FE0000"/><stop offset=".03" stop-color="#FE0001"/><stop offset=".036" stop-color="#FE0001"/><stop offset=".042" stop-color="#FE0001"/><stop offset=".048" stop-color="#FE0001"/><stop offset=".054" stop-color="#FE0001"/><stop offset=".06" stop-color="#FE0002"/><stop offset=".065" stop-color="#FD0002"/><stop offset=".071" stop-color="#FD0002"/><stop offset=".077" stop-color="#FD0002"/><stop offset=".083" stop-color="#FD0002"/><stop offset=".089" stop-color="#FD0003"/><stop offset=".095" stop-color="#FC0103"/><stop offset=".101" stop-color="#FC0103"/><stop offset=".107" stop-color="#FC0103"/><stop offset=".113" stop-color="#FC0103"/><stop offset=".119" stop-color="#FB0104"/><stop offset=".125" stop-color="#FB0104"/><stop offset=".131" stop-color="#FB0104"/><stop offset=".137" stop-color="#FA0104"/><stop offset=".143" stop-color="#FA0104"/><stop offset=".149" stop-color="#FA0104"/><stop offset=".155" stop-color="#F90105"/><stop offset=".161" stop-color="#F90105"/><stop offset=".167" stop-color="#F90105"/><stop offset=".173" stop-color="#F80105"/><stop offset=".179" stop-color="#F80105"/><stop offset=".185" stop-color="#F70106"/><stop offset=".19" stop-color="#F70106"/><stop offset=".196" stop-color="#F70206"/><stop offset=".202" stop-color="#F60206"/><stop offset=".208" stop-color="#F60206"/><stop offset=".214" stop-color="#F50206"/><stop offset=".22" stop-color="#F50207"/><stop offset=".226" stop-color="#F40207"/><stop offset=".232" stop-color="#F40207"/><stop offset=".238" stop-color="#F30207"/><stop offset=".244" stop-color="#F20207"/><stop offset=".25" stop-color="#F20207"/><stop offset=".256" stop-color="#F10208"/><stop offset=".262" stop-color="#F10208"/><stop offset=".268" stop-color="#F00208"/><stop offset=".274" stop-color="#F00208"/><stop offset=".28" stop-color="#EF0208"/><stop offset=".286" stop-color="#EE0208"/><stop offset=".292" stop-color="#EE0209"/><stop offset=".298" stop-color="#ED0209"/><stop offset=".304" stop-color="#EC0209"/><stop offset=".31" stop-color="#EC0309"/><stop offset=".315" stop-color="#EB0309"/><stop offset=".321" stop-color="#EA0309"/><stop offset=".327" stop-color="#EA0309"/><stop offset=".333" stop-color="#E9030A"/><stop offset=".339" stop-color="#E8030A"/><stop offset=".345" stop-color="#E7030A"/><stop offset=".351" stop-color="#E7030A"/><stop offset=".357" stop-color="#E6030A"/><stop offset=".363" stop-color="#E5030A"/><stop offset=".369" stop-color="#E4030A"/><stop offset=".375" stop-color="#E4030B"/><stop offset=".381" stop-color="#E3030B"/><stop offset=".387" stop-color="#E2030B"/><stop offset=".393" stop-color="#E1030B"/><stop offset=".399" stop-color="#E0030B"/><stop offset=".405" stop-color="#DF030B"/><stop offset=".411" stop-color="#DF030B"/><stop offset=".417" stop-color="#DE030C"/><stop offset=".423" stop-color="#DD030C"/><stop offset=".429" stop-color="#DC030C"/><stop offset=".435" stop-color="#DB030C"/><stop offset=".44" stop-color="#DA030C"/><stop offset=".446" stop-color="#D9040C"/><stop offset=".452" stop-color="#D8040C"/><stop offset=".458" stop-color="#D7040C"/><stop offset=".464" stop-color="#D6040D"/><stop offset=".47" stop-color="#D5040D"/><stop offset=".476" stop-color="#D4040D"/><stop offset=".482" stop-color="#D3040D"/><stop offset=".488" stop-color="#D2040D"/><stop offset=".494" stop-color="#D1040D"/><stop offset=".5" stop-color="#D0040D"/><stop offset=".506" stop-color="#CF040D"/><stop offset=".512" stop-color="#CE040E"/><stop offset=".518" stop-color="#CD040E"/><stop offset=".524" stop-color="#CC040E"/><stop offset=".53" stop-color="#CB040E"/><stop offset=".536" stop-color="#CA040E"/><stop offset=".542" stop-color="#C9040E"/><stop offset=".548" stop-color="#C8040E"/><stop offset=".554" stop-color="#C7040E"/><stop offset=".56" stop-color="#C6040E"/><stop offset=".565" stop-color="#C4040F"/><stop offset=".571" stop-color="#C3040F"/><stop offset=".577" stop-color="#C2040F"/><stop offset=".583" stop-color="#C1040F"/><stop offset=".589" stop-color="#C0040F"/><stop offset=".595" stop-color="#BF040F"/><stop offset=".601" stop-color="#BD040F"/><stop offset=".607" stop-color="#BC040F"/><stop offset=".613" stop-color="#BB040F"/><stop offset=".619" stop-color="#BA050F"/><stop offset=".625" stop-color="#B8050F"/><stop offset=".631" stop-color="#B70510"/><stop offset=".637" stop-color="#B60510"/><stop offset=".643" stop-color="#B50510"/><stop offset=".649" stop-color="#B30510"/><stop offset=".655" stop-color="#B20510"/><stop offset=".661" stop-color="#B10510"/><stop offset=".667" stop-color="#AF0510"/><stop offset=".673" stop-color="#AE0510"/><stop offset=".679" stop-color="#AD0510"/><stop offset=".685" stop-color="#AB0510"/><stop offset=".69" stop-color="#AA0510"/><stop offset=".696" stop-color="#A90510"/><stop offset=".702" stop-color="#A70511"/><stop offset=".708" stop-color="#A60511"/><stop offset=".714" stop-color="#A50511"/><stop offset=".72" stop-color="#A30511"/><stop offset=".726" stop-color="#A20511"/><stop offset=".732" stop-color="#A00511"/><stop offset=".738" stop-color="#9F0511"/><stop offset=".744" stop-color="#9D0511"/><stop offset=".75" stop-color="#9C0511"/><stop offset=".756" stop-color="#9A0511"/><stop offset=".762" stop-color="#990511"/><stop offset=".768" stop-color="#980511"/><stop offset=".774" stop-color="#960511"/><stop offset=".78" stop-color="#940511"/><stop offset=".786" stop-color="#930511"/><stop offset=".792" stop-color="#910511"/><stop offset=".798" stop-color="#900512"/><stop offset=".804" stop-color="#8E0512"/><stop offset=".81" stop-color="#8D0512"/><stop offset=".815" stop-color="#8B0512"/><stop offset=".821" stop-color="#8A0512"/><stop offset=".827" stop-color="#880512"/><stop offset=".833" stop-color="#860512"/><stop offset=".839" stop-color="#850512"/><stop offset=".845" stop-color="#830512"/><stop offset=".851" stop-color="#820512"/><stop offset=".857" stop-color="#800512"/><stop offset=".863" stop-color="#7E0512"/><stop offset=".869" stop-color="#7D0512"/><stop offset=".875" stop-color="#7B0512"/><stop offset=".881" stop-color="#790512"/><stop offset=".887" stop-color="#780512"/><stop offset=".893" stop-color="#760512"/><stop offset=".899" stop-color="#740512"/><stop offset=".905" stop-color="#720512"/><stop offset=".911" stop-color="#710512"/><stop offset=".917" stop-color="#6F0512"/><stop offset=".923" stop-color="#6D0512"/><stop offset=".929" stop-color="#6B0512"/><stop offset=".935" stop-color="#6A0512"/><stop offset=".94" stop-color="#680512"/><stop offset=".946" stop-color="#660512"/><stop offset=".952" stop-color="#640512"/><stop offset=".958" stop-color="#620512"/><stop offset=".964" stop-color="#610512"/><stop offset=".97" stop-color="#5F0512"/><stop offset=".976" stop-color="#5D0512"/><stop offset=".982" stop-color="#5B0512"/><stop offset=".988" stop-color="#590512"/><stop offset=".994" stop-color="#570512"/><stop offset="1" stop-color="#560613"/></linearGradient></defs><path d="M528.201 242.926c-7.8.074-16.917 3.034-23.488 10.973-11.69 13.699-12.898 35.129-1.02 46.803 9.092 8.928 24.302 7.314 32.17 4.388 7.742-2.715 8.107-9.638 3.214-9.638-1.295 0-2.83 1.092-5.53 2.068-5.293 2.354-16.814 3.477-22.897-2.768-3-3.075-4.768-7.273-5.283-11.726 2.444.138 4.993 0 7.587-.127 7.622-.33 13.602-1.232 20.07-4.307 17-8.09 16.03-25.246 9.167-31.586-2.652-2.45-7.923-4.137-13.99-4.08zm-1.528 7.496c12.334.039 20.394 15.373 1.148 23.48-4.583 1.834-10.168 2.74-16.1 2.9a52.975 52.975 0 0 1-6.88 0c.53-6.93 3-13.189 6.77-18.05 4.756-6.018 10.235-8.345 15.062-8.33z" transform="matrix(1.00031 0 0 1 0 19.994)" style="fill:#fff"/><path d="M449.808 273.588c11.354-11.586 30.275-11.396 37.089-8.54 8.154 3.715 2.593 10.19-3.228 8.128-4.629-1.968-17.63-3.661-27.147 6.19-9.336 9.397-8.86 26.634-2.84 33.596 6.914 8.18 20.074 6.529 25.716 3.852 6.357-3.386 13.38 3.174 2.195 7.85-8.701 3.64-25.339 5.102-34.894-5.1-9.336-9.65-9.465-33.151 3.11-45.976z" fill="#FFF" fill-rule="evenodd"/><path d="M412.18 241.942c-7.655.237-17.356 2.916-26.934 12.687-12.32 12.571-11.208 37.365-4.005 45.813 8.792 10.753 21.709 10.34 32.309.414-.14.814-.14 1.532-.14 2.346 0 6.047 7.651 5.899 8.426.148l6.707-51.047c.278-2.76 1.41-7.845-3.23-8.67-2.46-.583-7.178-1.875-13.132-1.691zm3.36 9.478c1.277.004 2.473.079 3.828.286l-5.301 40.433c-9.82 11.855-19.242 9.501-25.2 2.068-4.845-5.79-5.431-24.155 3.367-33.804 4.924-5.408 12.062-8.432 18.982-8.846 1.684-.074 3.045-.14 4.323-.137z" transform="matrix(1.00031 0 0 1 0 19.994)" style="fill:#fff"/><path d="M365.54 273.142c-3.319-1.646-12.39-2.332-17.505 3.978-3.573 4.663-5.497 11.532-6.136 16.755l-3.828 29.248c-1.022 6.32-9.072 6.458-9.072-.137 0-1.234 0-2.48.256-3.84 2.219-17.252 4.427-34.514 6.646-51.765 1.522-8.653 8.55-.412 8.178 3.714-.166 1.329-.343 2.648-.51 3.978h.127c1.963-3.461 3.858-6.036 6.253-7.967 7.07-5.697 15.66-4.695 20.313-2.194 8.825 4.115 2.19 11.11-4.723 8.23zM58.09 322.724c13.64-27.777 27.292-55.554 40.934-83.331.771-1.646 1.286-7.965-4.125-7.965-1.93 0-3.601 1.097-4.373 2.743-12.662 26.173-25.314 52.347-37.976 78.52h-.257c-5.669-25.53-11.327-51.07-16.995-76.6-1.03-5.496-10.298-5.222-10.298.823 0 .549 0 1.097.257 1.646 6.39 27.597 12.79 55.185 19.181 82.782 1.553 7.976 10.565 7.69 13.651 1.382zM116.744 271.33c-2.223 17.26-4.435 34.508-6.658 51.768-.767 6.354-9.087 6.492-9.087-.138 0-1.241 0-2.493.256-3.861 2.223-17.207 4.436-34.424 6.658-51.63.512-3.172 2.43-4.551 4.73-4.551 2.302 0 4.356 1.379 4.356 4.689 0 1.24 0 2.344-.255 3.724zM144.085 272.023c-1.297 9.678-2.592 19.366-3.898 29.044-1.046 7.743-1.545 11.709 1.555 15.284 3.1 3.565 9.558 2.95 14.012 1.375 5.801-2.157 12.1 2.38 4.934 6.61-6.797 3.872-20.94 4.612-26.46-.962-5.961-5.511-4.536-15.421-3.5-21.746l3.769-29.595h-5.193c-4.405 0-4.405-7.985 0-7.985h6.229l1.554-11.011c.778-6.061 9.21-6.336 9.21.275 0 1.1 0 2.062-.26 3.438-.299 2.432-.607 4.865-.906 7.298h17.251c4.157 0 4.157 7.985 0 7.985-6.109-.01-12.208-.01-18.297-.01z" fill="#FFF" fill-rule="evenodd"/><path d="M209.56 241.928c-8.122-.12-19.029 2.116-29.192 12.567-12.301 12.655-11.37 37.326-3.999 46.117 8.472 10.378 21.857 10.26 32.293.416-.14.82-.139 1.542-.139 2.361 0 6.1 7.62 5.952 8.382.15l6.729-51.386c.218-2.788 1.407-7.899-3.226-8.729-2.106-.503-5.975-1.423-10.848-1.496zm1.035 9.492c1.275.004 2.475.079 3.839.286l-5.296 40.425c-9.796 11.864-19.205 9.51-25.154 2.069-4.859-5.8-5.573-23.981 3.36-33.8 4.918-5.406 12.048-8.429 18.96-8.843 1.665-.074 3.016-.14 4.29-.137z" transform="matrix(1.00031 0 0 1 0 19.994)" style="fill:#fff"/><path d="m236.966 157.57 46.945 10.068c-55.646 17.761-111.301 35.522-166.948 53.293 25.794-18.109 51.579-36.208 77.373-54.317 9.415-6.606 20.725-10.163 31.846-10.163 3.671-.01 7.262.37 10.784 1.119z" fill="url(#a)" fill-rule="evenodd" transform="matrix(1.00031 0 0 1 0 19.994)"/><path d="M400.054 166.152c-13.097 13.459-32.461 19.49-50.251 15.653l-65.892-14.212c55.646-17.88 111.293-35.749 166.948-53.629-16.938 17.392-33.867 34.796-50.805 52.188z" fill="url(#b)" fill-rule="evenodd" transform="matrix(1.00031 0 0 1 0 19.994)"/><path d="M541.999 71.978c-2.14-.342-4.31-.5-6.5-.5" fill="#BFBFBF" fill-rule="evenodd"/><path d="M535.063 51.484c-14.516 0-29.156 6.124-39.538 16.755-14.892 15.241-29.774 30.484-44.666 45.725l163.949-52.485c-24.332-3.183-48.66-6.378-73.002-9.561" fill="url(#c)" fill-rule="evenodd" transform="matrix(1.00031 0 0 1 0 19.994)"/><path d="M335.325 232.428c2.592 0 4.674 2.333 4.674 4.952 0 2.745-2.072 4.804-4.674 4.804h-27.106c-3.499 26.745-7.006 53.5-10.504 80.246-1.953 10.295-10.384.138-9.985-3.991l9.985-76.255h-26.329c-5.183 0-5.183-9.756 0-9.756h63.939zM244.062 323.1c-.765 6.35-9.062 6.489-9.062-.138 0-1.24 0-2.491.255-3.86 3.618-27.875 7.228-55.74 10.847-83.615.382-3.032 2.295-4.56 4.59-4.56 4.59 0 4.6 5.79 4.08 8.558-3.56 27.875-7.14 55.74-10.71 83.615z" fill="#FFF" fill-rule="evenodd"/></svg>