<svg xmlns="http://www.w3.org/2000/svg" viewBox="0 0 256 288">
  <defs>
    <linearGradient id="cpp-grad" x1="0%" y1="0%" x2="100%" y2="100%">
      <stop offset="0%" style="stop-color:#00599C;stop-opacity:1" />
      <stop offset="100%" style="stop-color:#004482;stop-opacity:1" />
    </linearGradient>
  </defs>
  <path fill="url(#cpp-grad)" d="M252.865 141.175L140.015 267.085c-3.625 4.041-9.857 4.041-13.482 0L13.682 141.175c-3.625-4.04-3.625-10.595 0-14.636L126.533 0.6c3.625-4.041 9.857-4.041 13.482 0l112.85 125.939c3.625 4.041 3.625 10.596 0 14.636z"/>

  <!-- C letter -->
  <path fill="#FFFFFF" d="M128 48c-44.183 0-80 35.817-80 80s35.817 80 80 80c25.04 0 47.37-11.503 62.145-29.5l-20.5-15.5C159.645 174.5 144.82 184 128 184c-30.928 0-56-25.072-56-56s25.072-56 56-56c16.82 0 31.645 9.5 41.645 21l20.5-15.5C175.37 59.503 153.04 48 128 48z"/>

  <!-- ++ symbols -->
  <path fill="#FFFFFF" d="M186 118h12v12h-12v12h-12v-12h-12v-12h12v-12h12v12z"/>
  <path fill="#FFFFFF" d="M226 118h12v12h-12v12h-12v-12h-12v-12h12v-12h12v12z"/>
</svg>
