<svg xmlns="http://www.w3.org/2000/svg" viewBox="0 0 256 256">
  <defs>
    <linearGradient id="jira-grad" x1="0%" y1="0%" x2="100%" y2="100%">
      <stop offset="0%" style="stop-color:#2684FF;stop-opacity:1" />
      <stop offset="100%" style="stop-color:#0052CC;stop-opacity:1" />
    </linearGradient>
  </defs>
  <path fill="url(#jira-grad)" d="M244.658 0H121.707a55.502 55.502 0 0 0 55.502 55.502h22.649V77.37c.02 30.625 24.841 55.447 55.466 55.467V10.666C255.324 4.777 250.55 0 244.658 0z"/>
  <path fill="#2684FF" d="M183.822 61.262H60.872c.019 30.625 24.84 55.447 55.466 55.467h22.649v21.938c.039 30.625 24.877 55.43 55.502 55.43V71.93c0-5.891-4.776-10.667-10.667-10.667z"/>
  <path fill="#0052CC" d="M122.951 122.489H0c0 30.653 24.85 55.502 55.502 55.502h22.72v21.867c.02 30.597 24.798 55.408 55.396 55.467V133.156c0-5.891-4.776-10.667-10.667-10.667z"/>
</svg>
